<svg id="us4x3" xmlns="http://www.w3.org/2000/svg" width="24.08" height="18" viewBox="0 0 24.08 18">
  <path id="Path_80" data-name="Path 80" d="M.075,0h24V18h-24" transform="translate(0)" fill="#bf3e45"/>
  <path id="Path_81" data-name="Path 81" d="M.075,1.962h24M.075,4.77h24M.075,7.59h24m-24,2.819h24m-24,2.82h24m-24,2.819h24" transform="translate(0)" fill="#010101" stroke="#fff" stroke-width="1"/>
  <path id="Path_82" data-name="Path 82" d="M0,0H17.2V12.191H0" fill="#1c305d"/>
  <path id="Path_83" data-name="Path 83" d="M1.415.519l.424,1.273L.755.99h1.32l-1.085.8L1.415.519Z" fill="#fff"/>
  <path id="Path_84" data-name="Path 84" d="M4.292.519l.424,1.273L3.631.99h1.32l-1.085.8L4.292.519Z" transform="translate(0.219)" fill="#fff"/>
  <path id="Path_85" data-name="Path 85" d="M7.168.519l.424,1.273L6.508.99h1.32l-1.085.8L7.168.519Z" transform="translate(0.392)" fill="#fff"/>
  <path id="Path_86" data-name="Path 86" d="M10.045.519l.424,1.273L9.385.99h1.32l-1.085.8L10.045.519Z" transform="translate(0.565)" fill="#fff"/>
  <path id="Path_87" data-name="Path 87" d="M12.922.519l.424,1.273L12.262.99h1.32l-1.085.8L12.922.519Z" transform="translate(0.739)" fill="#fff"/>
  <path id="Path_88" data-name="Path 88" d="M15.751.519l.424,1.273L15.091.99h1.32l-1.085.8L15.751.519Z" transform="translate(0.909)" fill="#fff"/>
  <path id="Path_89" data-name="Path 89" d="M2.877,1.745,3.3,3.018l-1.085-.8h1.32l-1.085.8.424-1.273Z" fill="#fff"/>
  <path id="Path_90" data-name="Path 90" d="M5.753,1.745l.424,1.273-1.085-.8h1.32l-1.085.8.424-1.273Z" transform="translate(0.307)" fill="#fff"/>
  <path id="Path_91" data-name="Path 91" d="M8.63,1.745l.424,1.273-1.085-.8H9.29l-1.085.8L8.63,1.745Z" transform="translate(0.48)" fill="#fff"/>
  <path id="Path_92" data-name="Path 92" d="M11.46,1.745l.424,1.273-1.085-.8h1.32l-1.085.8Z" transform="translate(0.651)" fill="#fff"/>
  <path id="Path_93" data-name="Path 93" d="M14.337,1.745l.424,1.273-1.085-.8H15l-1.085.8Z" transform="translate(0.824)" fill="#fff"/>
  <path id="Path_94" data-name="Path 94" d="M1.415,2.971l.424,1.273-1.085-.8h1.32l-1.085.8.424-1.273Z" transform="translate(0 0.182)" fill="#fff"/>
  <path id="Path_95" data-name="Path 95" d="M4.292,2.971l.424,1.273-1.085-.8h1.32l-1.085.8.424-1.273Z" transform="translate(0.219 0.182)" fill="#fff"/>
  <path id="Path_96" data-name="Path 96" d="M7.168,2.971l.424,1.273-1.085-.8h1.32l-1.085.8.424-1.273Z" transform="translate(0.392 0.182)" fill="#fff"/>
  <path id="Path_97" data-name="Path 97" d="M10.045,2.971l.424,1.273-1.085-.8h1.32l-1.085.8Z" transform="translate(0.565 0.182)" fill="#fff"/>
  <path id="Path_98" data-name="Path 98" d="M12.922,2.971l.424,1.273-1.085-.8h1.32l-1.085.8Z" transform="translate(0.739 0.182)" fill="#fff"/>
  <path id="Path_99" data-name="Path 99" d="M15.751,2.971l.424,1.273-1.085-.8h1.32l-1.085.8.424-1.273Z" transform="translate(0.909 0.182)" fill="#fff"/>
  <path id="Path_100" data-name="Path 100" d="M2.877,4.2,3.3,5.471l-1.085-.8h1.32l-1.085.8L2.877,4.2Z" transform="translate(0 0.257)" fill="#fff"/>
  <path id="Path_101" data-name="Path 101" d="M5.753,4.2l.424,1.273-1.085-.8h1.32l-1.085.8L5.753,4.2Z" transform="translate(0.307 0.257)" fill="#fff"/>
  <path id="Path_102" data-name="Path 102" d="M8.63,4.2l.424,1.273-1.085-.8H9.29l-1.085.8L8.63,4.2Z" transform="translate(0.48 0.257)" fill="#fff"/>
  <path id="Path_103" data-name="Path 103" d="M11.46,4.2l.424,1.273-1.085-.8h1.32l-1.085.8L11.46,4.2Z" transform="translate(0.651 0.257)" fill="#fff"/>
  <path id="Path_104" data-name="Path 104" d="M14.337,4.2l.424,1.273-1.085-.8H15l-1.085.8L14.337,4.2Z" transform="translate(0.824 0.257)" fill="#fff"/>
  <path id="Path_105" data-name="Path 105" d="M1.415,5.423,1.839,6.7l-1.085-.8h1.32L.99,6.7l.424-1.273Z" transform="translate(0 0.333)" fill="#fff"/>
  <path id="Path_106" data-name="Path 106" d="M4.292,5.423,4.716,6.7l-1.085-.8h1.32l-1.085.8.424-1.273Z" transform="translate(0.219 0.333)" fill="#fff"/>
  <path id="Path_107" data-name="Path 107" d="M7.168,5.423,7.593,6.7l-1.085-.8h1.32l-1.085.8.424-1.273Z" transform="translate(0.392 0.333)" fill="#fff"/>
  <path id="Path_108" data-name="Path 108" d="M10.045,5.423,10.469,6.7l-1.085-.8h1.32l-1.085.8Z" transform="translate(0.565 0.333)" fill="#fff"/>
  <path id="Path_109" data-name="Path 109" d="M12.922,5.423,13.346,6.7l-1.085-.8h1.32L12.5,6.7Z" transform="translate(0.739 0.333)" fill="#fff"/>
  <path id="Path_110" data-name="Path 110" d="M15.751,5.423,16.176,6.7l-1.085-.8h1.32l-1.085.8.424-1.273Z" transform="translate(0.909 0.333)" fill="#fff"/>
  <path id="Path_111" data-name="Path 111" d="M2.877,6.65,3.3,7.923l-1.085-.8h1.32l-1.085.8L2.877,6.65Z" transform="translate(0 0.408)" fill="#fff"/>
  <path id="Path_112" data-name="Path 112" d="M5.753,6.65l.424,1.273-1.085-.8h1.32l-1.085.8L5.753,6.65Z" transform="translate(0.307 0.408)" fill="#fff"/>
  <path id="Path_113" data-name="Path 113" d="M8.63,6.65l.424,1.273-1.085-.8H9.29l-1.085.8L8.63,6.65Z" transform="translate(0.48 0.408)" fill="#fff"/>
  <path id="Path_114" data-name="Path 114" d="M11.46,6.65l.424,1.273-1.085-.8h1.32l-1.085.8Z" transform="translate(0.651 0.408)" fill="#fff"/>
  <path id="Path_115" data-name="Path 115" d="M14.337,6.65l.424,1.273-1.085-.8H15l-1.085.8Z" transform="translate(0.824 0.408)" fill="#fff"/>
  <path id="Path_116" data-name="Path 116" d="M1.415,7.829,1.839,9.1.755,8.3h1.32L.99,9.1l.424-1.273Z" transform="translate(0 0.48)" fill="#fff"/>
  <path id="Path_117" data-name="Path 117" d="M4.292,7.829,4.716,9.1,3.631,8.3h1.32l-1.085.8.424-1.273Z" transform="translate(0.219 0.48)" fill="#fff"/>
  <path id="Path_118" data-name="Path 118" d="M7.168,7.829,7.593,9.1,6.508,8.3h1.32l-1.085.8.424-1.273Z" transform="translate(0.392 0.48)" fill="#fff"/>
  <path id="Path_119" data-name="Path 119" d="M10.045,7.829,10.469,9.1,9.385,8.3h1.32l-1.085.8Z" transform="translate(0.565 0.48)" fill="#fff"/>
  <path id="Path_120" data-name="Path 120" d="M12.922,7.829,13.346,9.1l-1.085-.8h1.32L12.5,9.1Z" transform="translate(0.739 0.48)" fill="#fff"/>
  <path id="Path_121" data-name="Path 121" d="M15.751,7.829,16.176,9.1l-1.085-.8h1.32l-1.085.8.424-1.273Z" transform="translate(0.909 0.48)" fill="#fff"/>
  <path id="Path_122" data-name="Path 122" d="M2.877,9.055,3.3,10.328l-1.085-.8h1.32l-1.085.8.424-1.273Z" transform="translate(0 0.555)" fill="#fff"/>
  <path id="Path_123" data-name="Path 123" d="M5.753,9.055l.424,1.273-1.085-.8h1.32l-1.085.8.424-1.273Z" transform="translate(0.307 0.555)" fill="#fff"/>
  <path id="Path_124" data-name="Path 124" d="M8.63,9.055l.424,1.273-1.085-.8H9.29l-1.085.8L8.63,9.055Z" transform="translate(0.48 0.555)" fill="#fff"/>
  <path id="Path_125" data-name="Path 125" d="M11.46,9.055l.424,1.273-1.085-.8h1.32l-1.085.8Z" transform="translate(0.651 0.555)" fill="#fff"/>
  <path id="Path_126" data-name="Path 126" d="M14.337,9.055l.424,1.273-1.085-.8H15l-1.085.8Z" transform="translate(0.824 0.555)" fill="#fff"/>
  <path id="Path_127" data-name="Path 127" d="M1.415,10.281l.424,1.273-1.085-.8h1.32l-1.085.8.424-1.273Z" transform="translate(0 0.631)" fill="#fff"/>
  <path id="Path_128" data-name="Path 128" d="M4.292,10.281l.424,1.273-1.085-.8h1.32l-1.085.8.424-1.273Z" transform="translate(0.219 0.631)" fill="#fff"/>
  <path id="Path_129" data-name="Path 129" d="M7.168,10.281l.424,1.273-1.085-.8h1.32l-1.085.8.424-1.273Z" transform="translate(0.392 0.631)" fill="#fff"/>
  <path id="Path_130" data-name="Path 130" d="M10.045,10.281l.424,1.273-1.085-.8h1.32l-1.085.8Z" transform="translate(0.565 0.631)" fill="#fff"/>
  <path id="Path_131" data-name="Path 131" d="M12.922,10.281l.424,1.273-1.085-.8h1.32l-1.085.8Z" transform="translate(0.739 0.631)" fill="#fff"/>
  <path id="Path_132" data-name="Path 132" d="M15.751,10.281l.424,1.273-1.085-.8h1.32l-1.085.8.424-1.273Z" transform="translate(0.909 0.631)" fill="#fff"/>
</svg>
