<svg xmlns="http://www.w3.org/2000/svg" width="14.769" height="18" viewBox="0 0 14.769 18">
  <path id="icon-notifi" d="M7.385,18a1.848,1.848,0,0,1-1.846-1.847H9.231A1.848,1.848,0,0,1,7.385,18Zm7.385-2.77H0v-.923l1.846-1.846V7.846A6.541,6.541,0,0,1,2.933,4.1,5.1,5.1,0,0,1,6,2.012V1.385a1.385,1.385,0,0,1,2.77,0v.627A5.1,5.1,0,0,1,11.84,4.1a6.547,6.547,0,0,1,1.084,3.744v4.616l1.846,1.846v.922ZM7.385,3.692A3.431,3.431,0,0,0,4.676,4.911a4.53,4.53,0,0,0-.984,2.935v5.539h7.385V7.846a4.531,4.531,0,0,0-.984-2.935A3.43,3.43,0,0,0,7.385,3.692Z" fill="#fff"/>
</svg>
