<svg xmlns="http://www.w3.org/2000/svg" width="22.5" height="18" viewBox="0 0 22.5 18">
  <path id="Icon_awesome-car-alt" data-name="Icon awesome-car-alt" d="M20.562,11.453l-.527-1.317L19.1,7.8a5.224,5.224,0,0,0-4.875-3.3H8.273A5.225,5.225,0,0,0,3.4,7.8l-.934,2.336-.527,1.317A2.994,2.994,0,0,0,0,14.25V16.5a2.976,2.976,0,0,0,.75,1.965V21a1.5,1.5,0,0,0,1.5,1.5h1.5A1.5,1.5,0,0,0,5.25,21V19.5h12V21a1.5,1.5,0,0,0,1.5,1.5h1.5a1.5,1.5,0,0,0,1.5-1.5V18.465A2.974,2.974,0,0,0,22.5,16.5V14.25A2.994,2.994,0,0,0,20.562,11.453ZM6.184,8.914A2.25,2.25,0,0,1,8.273,7.5h5.953a2.25,2.25,0,0,1,2.089,1.414l.934,2.336h-12l.934-2.336ZM3.75,16.491A1.415,1.415,0,0,1,2.25,15a1.415,1.415,0,0,1,1.5-1.5A2.886,2.886,0,0,1,6,15.743C6,16.64,4.65,16.491,3.75,16.491Zm15,0c-.9,0-2.25.15-2.25-.748A2.886,2.886,0,0,1,18.75,13.5a1.415,1.415,0,0,1,1.5,1.5,1.415,1.415,0,0,1-1.5,1.5Z" transform="translate(0 -4.5)" fill="#b39047"/>
</svg>
