<svg xmlns="http://www.w3.org/2000/svg" width="10.123" height="18" viewBox="0 0 10.123 18">
  <path id="Icon_awesome-dollar-sign" data-name="Icon awesome-dollar-sign" d="M7.356,8.205l-3.8-1.111a1.037,1.037,0,0,1,.292-2.032H6.182a2.146,2.146,0,0,1,1.2.369.548.548,0,0,0,.686-.07l1.223-1.2A.57.57,0,0,0,9.23,3.3,4.971,4.971,0,0,0,6.189,2.25V.563A.564.564,0,0,0,5.626,0H4.5a.564.564,0,0,0-.562.563V2.25H3.851a3.852,3.852,0,0,0-3.832,4.2,4.025,4.025,0,0,0,2.946,3.4l3.6,1.055a1.037,1.037,0,0,1-.292,2.032H3.946a2.146,2.146,0,0,1-1.2-.369.548.548,0,0,0-.686.07l-1.223,1.2A.57.57,0,0,0,.9,14.7,4.971,4.971,0,0,0,3.939,15.75v1.688A.564.564,0,0,0,4.5,18H5.626a.564.564,0,0,0,.563-.562V15.743A3.971,3.971,0,0,0,9.9,13.187,3.86,3.86,0,0,0,7.356,8.205Z" transform="translate(-0.003)" fill="#b39047"/>
</svg>
