<svg xmlns="http://www.w3.org/2000/svg" width="20.534" height="18" viewBox="0 0 20.534 18">
  <path id="Icon_map-food" data-name="Icon map-food" d="M21.208,7.629l-1.683,13.2H13.839L12.163,7.563H19.1l1.372-4.739.778.234-1.316,4.56,1.271.01Zm-9.849,7.634s.213-1.711-2.736-1.711h-4.7c-2.944,0-2.736,1.711-2.736,1.711H11.359ZM1.192,19.113s-.208,1.711,2.736,1.711h4.7c2.948,0,2.736-1.711,2.736-1.711H1.192Zm9.726-.856a.984.984,0,0,0,.872-1.069.983.983,0,0,0-.872-1.07H1.593a.984.984,0,0,0-.873,1.07.986.986,0,0,0,.873,1.069h9.325Z" transform="translate(-0.72 -2.825)" fill="#b39047"/>
</svg>
