<svg xmlns="http://www.w3.org/2000/svg" width="30" height="18" viewBox="0 0 30 18">
  <path id="Icon_awesome-money-bill-alt" data-name="Icon awesome-money-bill-alt" d="M16.5,15h-.75V10.875a.375.375,0,0,0-.375-.375h-.637a1.123,1.123,0,0,0-.624.189l-.719.479a.375.375,0,0,0-.1.52l.416.624a.375.375,0,0,0,.52.1l.022-.015V15H13.5a.375.375,0,0,0-.375.375v.75a.375.375,0,0,0,.375.375h3a.375.375,0,0,0,.375-.375v-.75A.375.375,0,0,0,16.5,15Zm12-10.5H1.5A1.5,1.5,0,0,0,0,6V21a1.5,1.5,0,0,0,1.5,1.5h27A1.5,1.5,0,0,0,30,21V6A1.5,1.5,0,0,0,28.5,4.5ZM2.25,20.25v-3a3,3,0,0,1,3,3Zm0-10.5v-3h3A3,3,0,0,1,2.25,9.75Zm12.75,9c-2.485,0-4.5-2.351-4.5-5.25S12.515,8.25,15,8.25s4.5,2.35,4.5,5.25S17.484,18.75,15,18.75Zm12.75,1.5h-3a3,3,0,0,1,3-3Zm0-10.5a3,3,0,0,1-3-3h3Z" transform="translate(0 -4.5)" fill="#b39047"/>
</svg>
