<svg xmlns="http://www.w3.org/2000/svg" width="24" height="20.083" viewBox="0 0 24 20.083">
  <g id="Group_29" data-name="Group 29" transform="translate(-466.1 -1280.417)">
    <g id="Icon_feather-users" data-name="Icon feather-users" transform="translate(467.1 1281.5)">
      <path id="Path_11" data-name="Path 11" d="M17.944,28.667V26.611A4.111,4.111,0,0,0,13.833,22.5H5.611A4.111,4.111,0,0,0,1.5,26.611v2.056" transform="translate(-1.5 -10.667)" fill="none" stroke="#b39047" stroke-linecap="round" stroke-linejoin="round" stroke-width="2"/>
      <path id="Path_12" data-name="Path 12" d="M15.722,8.611A4.111,4.111,0,1,1,11.611,4.5,4.111,4.111,0,0,1,15.722,8.611Z" transform="translate(-3.563 -4.5)" fill="none" stroke="#b39047" stroke-linecap="round" stroke-linejoin="round" stroke-width="2"/>
      <path id="Path_13" data-name="Path 13" d="M33.083,28.728V26.672A4.111,4.111,0,0,0,30,22.7" transform="translate(-11.083 -10.728)" fill="none" stroke="#b39047" stroke-linecap="round" stroke-linejoin="round" stroke-width="2"/>
      <path id="Path_14" data-name="Path 14" d="M24,4.695a4.111,4.111,0,0,1,0,7.965" transform="translate(-9.066 -4.561)" fill="none" stroke="#b39047" stroke-linecap="round" stroke-linejoin="round" stroke-width="2"/>
    </g>
  </g>
</svg>
