<svg id="_5_Stars" data-name="5 Stars" xmlns="http://www.w3.org/2000/svg" width="83.801" height="14.077" viewBox="0 0 83.801 14.077">
  <path id="Icon_metro-star-full" data-name="Icon metro-star-full" d="M17.372,8.06l-5.114-.743L9.971,2.683,7.684,7.317,2.571,8.06l3.7,3.607L5.4,16.76l4.574-2.4,4.574,2.4-.874-5.093Z" transform="translate(-2.571 -2.683)" fill="#fc0"/>
  <path id="Icon_metro-star-full-2" data-name="Icon metro-star-full" d="M17.372,8.06l-5.114-.743L9.971,2.683,7.684,7.317,2.571,8.06l3.7,3.607L5.4,16.76l4.574-2.4,4.574,2.4-.874-5.093Z" transform="translate(14.429 -2.683)" fill="#fc0"/>
  <path id="Icon_metro-star-full-3" data-name="Icon metro-star-full" d="M17.372,8.06l-5.114-.743L9.971,2.683,7.684,7.317,2.571,8.06l3.7,3.607L5.4,16.76l4.574-2.4,4.574,2.4-.874-5.093Z" transform="translate(32.429 -2.683)" fill="#fc0"/>
  <path id="Icon_metro-star-full-4" data-name="Icon metro-star-full" d="M17.372,8.06l-5.114-.743L9.971,2.683,7.684,7.317,2.571,8.06l3.7,3.607L5.4,16.76l4.574-2.4,4.574,2.4-.874-5.093Z" transform="translate(49.429 -2.683)" fill="#fc0"/>
  <path id="Icon_metro-star-full-5" data-name="Icon metro-star-full" d="M17.372,8.06l-5.114-.743L9.971,2.683,7.684,7.317,2.571,8.06l3.7,3.607L5.4,16.76l4.574-2.4,4.574,2.4-.874-5.093Z" transform="translate(66.429 -2.683)" fill="#fc0"/>
</svg>
