<svg xmlns="http://www.w3.org/2000/svg" width="20.802" height="20.275" viewBox="0 0 20.802 20.275">
  <path id="Icon_awesome-arrow-right" data-name="Icon awesome-arrow-right" d="M8.844,4.005,9.875,2.975a1.11,1.11,0,0,1,1.574,0L20.475,12a1.11,1.11,0,0,1,0,1.574l-9.026,9.026a1.11,1.11,0,0,1-1.574,0L8.844,21.564a1.116,1.116,0,0,1,.019-1.592l5.595-5.33H1.114A1.112,1.112,0,0,1,0,13.528V12.042a1.112,1.112,0,0,1,1.114-1.114H14.458L8.863,5.6A1.107,1.107,0,0,1,8.844,4.005Z" transform="translate(0 -2.647)" fill="#8a8a8a"/>
</svg>
