<svg xmlns="http://www.w3.org/2000/svg" width="85.269" height="59.033" viewBox="0 0 85.269 59.033">
  <g id="Icon_ionic-ios-mail" data-name="Icon ionic-ios-mail" transform="translate(-3.375 -7.875)">
    <path id="Path_18" data-name="Path 18" d="M87.948,10.44,65.892,32.905a.4.4,0,0,0,0,.574L81.327,49.918a2.66,2.66,0,0,1,0,3.772,2.672,2.672,0,0,1-3.772,0L62.182,37.312a.421.421,0,0,0-.594,0l-3.751,3.813a16.5,16.5,0,0,1-11.766,4.96,16.835,16.835,0,0,1-12.012-5.1l-3.608-3.669a.421.421,0,0,0-.594,0L14.485,53.689a2.672,2.672,0,0,1-3.772,0,2.66,2.66,0,0,1,0-3.772L26.148,33.479a.436.436,0,0,0,0-.574L4.072,10.44a.4.4,0,0,0-.7.287V55.678a6.578,6.578,0,0,0,6.559,6.559H82.085a6.578,6.578,0,0,0,6.559-6.559V10.727A.41.41,0,0,0,87.948,10.44Z" transform="translate(0 4.671)" fill="#b39146"/>
    <path id="Path_19" data-name="Path 19" d="M44.38,45.406a11.144,11.144,0,0,0,8.014-3.362L84.555,9.31A6.442,6.442,0,0,0,80.5,7.875H8.284A6.4,6.4,0,0,0,4.226,9.31L36.386,42.044A11.145,11.145,0,0,0,44.38,45.406Z" transform="translate(1.629)" fill="#b39146"/>
  </g>
</svg>
