<svg id="Icon_facebook" data-name="Icon facebook" xmlns="http://www.w3.org/2000/svg" width="30.194" height="30.194" viewBox="0 0 30.194 30.194">
  <path id="Icon_metro-facebook" data-name="Icon metro-facebook" d="M27.733,1.928H7.6A5.032,5.032,0,0,0,2.571,6.961V27.089A5.032,5.032,0,0,0,7.6,32.122H17.668V18.912H13.894V15.138h3.774V12.307a4.718,4.718,0,0,1,4.718-4.718H27.1v3.774H22.386a.944.944,0,0,0-.944.944v2.831h5.19l-.944,3.774H21.442v13.21h6.291a5.032,5.032,0,0,0,5.032-5.033V6.961a5.032,5.032,0,0,0-5.032-5.033Z" transform="translate(-2.571 -1.928)" fill="#e3e3e3"/>
</svg>
