<svg xmlns="http://www.w3.org/2000/svg" width="30.201" height="30.194" viewBox="0 0 30.201 30.194">
  <g id="Icon_instagram" data-name="Icon instagram" transform="translate(0 0)">
    <path id="Icon_awesome-instagram" data-name="Icon awesome-instagram" d="M15.1,9.593a7.741,7.741,0,1,0,7.741,7.741A7.729,7.729,0,0,0,15.1,9.593Zm0,12.774a5.033,5.033,0,1,1,5.033-5.033A5.042,5.042,0,0,1,15.1,22.368ZM24.962,9.277a1.806,1.806,0,1,1-1.806-1.806A1.8,1.8,0,0,1,24.962,9.277Zm5.127,1.833a8.936,8.936,0,0,0-2.439-6.327,8.995,8.995,0,0,0-6.327-2.439c-2.493-.141-9.965-.141-12.458,0A8.982,8.982,0,0,0,2.54,4.776,8.965,8.965,0,0,0,.1,11.1C-.041,13.6-.041,21.067.1,23.56A8.936,8.936,0,0,0,2.54,29.887a9.006,9.006,0,0,0,6.327,2.439c2.493.141,9.965.141,12.458,0a8.936,8.936,0,0,0,6.327-2.439A8.995,8.995,0,0,0,30.09,23.56c.141-2.493.141-9.958,0-12.451ZM26.869,26.235A5.1,5.1,0,0,1,24,29.105c-1.988.788-6.7.606-8.9.606s-6.919.175-8.9-.606a5.1,5.1,0,0,1-2.87-2.87c-.788-1.988-.606-6.7-.606-8.9s-.175-6.919.606-8.9A5.1,5.1,0,0,1,6.2,5.564c1.988-.788,6.7-.606,8.9-.606s6.919-.175,8.9.606a5.1,5.1,0,0,1,2.87,2.87c.788,1.988.606,6.7.606,8.9S27.657,24.254,26.869,26.235Z" transform="translate(0.005 -2.238)" fill="#e3e3e3"/>
  </g>
</svg>
