<svg id="Progress_bar" data-name="Progress bar" xmlns="http://www.w3.org/2000/svg" width="376" height="24" viewBox="0 0 376 24">
  <rect id="Rectangle_45" data-name="Rectangle 45" width="376" height="24" rx="8" fill="#e2e2e2"/>
  <path id="Path_8" data-name="Path 8" d="M10-3H28L15,21H-3Z" transform="translate(10.702 3)" fill="#b39146"/>
  <path id="Path_9" data-name="Path 9" d="M10-3H28L15,21H-3Z" transform="translate(44.702 3)" fill="#b39146"/>
  <path id="Path_10" data-name="Path 10" d="M10-3H28L15,21H-3Z" transform="translate(83.901 3)" fill="#b39146"/>
  <path id="Path_11" data-name="Path 11" d="M10-3H28L15,21H-3Z" transform="translate(120.5 3)" fill="#b39146"/>
  <path id="Path_12" data-name="Path 12" d="M10-3H28L15,21H-3Z" transform="translate(157.099 3)" fill="#b39146"/>
  <path id="Path_13" data-name="Path 13" d="M10-3H28L15,21H-3Z" transform="translate(193.699 3)" fill="#b39146"/>
  <path id="Path_14" data-name="Path 14" d="M10-3H28L15,21H-3Z" transform="translate(230.298 3)" fill="#b39146"/>
  <path id="Path_15" data-name="Path 15" d="M10-3H28L15,21H-3Z" transform="translate(266.897 3)" fill="#b39146"/>
  <path id="Path_16" data-name="Path 16" d="M10-3H28L15,21H-3Z" transform="translate(306.096 3)" fill="#b39146"/>
  <path id="Path_17" data-name="Path 17" d="M10-3H28L15,21H-3Z" transform="translate(340.096 3)" fill="#b39146"/>
</svg>
