<svg xmlns="http://www.w3.org/2000/svg" xmlns:xlink="http://www.w3.org/1999/xlink" width="152" height="58" viewBox="0 0 152 58">
  <defs>
    <filter id="Rectangle_56" x="0" y="0" width="152" height="58" filterUnits="userSpaceOnUse">
      <feOffset dy="3" input="SourceAlpha"/>
      <feGaussianBlur stdDeviation="3" result="blur"/>
      <feFlood flood-opacity="0.161"/>
      <feComposite operator="in" in2="blur"/>
      <feComposite in="SourceGraphic"/>
    </filter>
  </defs>
  <g id="Subscribe_Email" data-name="Subscribe Email" transform="translate(9 6)">
    <g transform="matrix(1, 0, 0, 1, -9, -6)" filter="url(#Rectangle_56)">
      <g id="Rectangle_56-2" data-name="Rectangle 56" transform="translate(9 6)" fill="#fff" stroke="#c5c5c5" stroke-width="1">
        <rect width="134" height="40" rx="6" stroke="none"/>
        <rect x="0.5" y="0.5" width="133" height="39" rx="5.5" fill="none"/>
      </g>
    </g>
    <text id="Subscribe" transform="translate(80 26)" fill="#575757" font-size="16" font-family="Montserrat" font-weight="500"><tspan x="-40.224" y="0">Subscribe</tspan></text>
    <rect id="Rectangle_57" data-name="Rectangle 57" width="22" height="22" rx="4" transform="translate(8 9)" fill="#ffc400"/>
    <g id="Icon_ionic-ios-mail" data-name="Icon ionic-ios-mail" transform="translate(8.307 7.058)">
      <path id="Path_22" data-name="Path 22" d="M17.892,10.337l-3.786,4.122a.076.076,0,0,0,0,.105l2.649,3.016a.512.512,0,0,1,0,.692.438.438,0,0,1-.647,0l-2.639-3a.069.069,0,0,0-.1,0l-.644.7a2.746,2.746,0,0,1-2.02.91,2.8,2.8,0,0,1-2.062-.936l-.619-.673a.069.069,0,0,0-.1,0l-2.639,3a.438.438,0,0,1-.647,0,.512.512,0,0,1,0-.692l2.649-3.016a.084.084,0,0,0,0-.105L3.495,10.337a.069.069,0,0,0-.12.053v8.247A1.17,1.17,0,0,0,4.5,19.84H16.886a1.17,1.17,0,0,0,1.126-1.2V10.39A.07.07,0,0,0,17.892,10.337Z" transform="translate(0 -1.832)"/>
      <path id="Path_23" data-name="Path 23" d="M11.332,14.076a3.3,3.3,0,0,0,1.418-.287L18.441,8a2.019,2.019,0,0,0-.718-.122H4.944A2,2,0,0,0,4.226,8l5.691,5.792A3.3,3.3,0,0,0,11.332,14.076Z" transform="translate(-0.639)"/>
    </g>
  </g>
</svg>
