<svg id="Icon_twitter" data-name="Icon twitter" xmlns="http://www.w3.org/2000/svg" width="37.151" height="30.194" viewBox="0 0 37.151 30.194">
  <path id="Icon_simple-twitter" data-name="Icon simple-twitter" d="M37.078,6.965a15.48,15.48,0,0,1-4.373,1.2,7.674,7.674,0,0,0,3.348-4.215,15.731,15.731,0,0,1-4.84,1.833,7.613,7.613,0,0,0-13.174,5.2,7.793,7.793,0,0,0,.2,1.74,21.569,21.569,0,0,1-15.7-7.934A7.464,7.464,0,0,0,1.508,8.616a7.617,7.617,0,0,0,3.387,6.34A7.591,7.591,0,0,1,1.446,14V14.1a7.62,7.62,0,0,0,6.108,7.472A7.686,7.686,0,0,1,4.13,21.7a7.641,7.641,0,0,0,7.126,5.289,15.274,15.274,0,0,1-9.445,3.258A16.165,16.165,0,0,1,0,30.144a21.663,21.663,0,0,0,11.7,3.419c14.014,0,21.669-11.6,21.669-21.649,0-.324,0-.65-.023-.975A15.379,15.379,0,0,0,37.151,7l-.073-.031Z" transform="translate(0 -3.369)" fill="#e3e3e3"/>
</svg>
