<svg id="Icon_whatsapp" data-name="Icon whatsapp" xmlns="http://www.w3.org/2000/svg" width="30.184" height="30.184" viewBox="0 0 30.184 30.184">
  <path id="Icon_awesome-whatsapp-square" data-name="Icon awesome-whatsapp-square" d="M15.092,8.368a8.879,8.879,0,0,0-7.526,13.6l.209.337-.9,3.274,3.362-.883.323.2a8.857,8.857,0,0,0,4.521,1.24h.007a8.979,8.979,0,0,0,8.981-8.88,8.921,8.921,0,0,0-2.7-6.279A8.812,8.812,0,0,0,15.092,8.368Zm5.222,12.694a2.723,2.723,0,0,1-1.8,1.267,5.207,5.207,0,0,1-3.2-.667,11.993,11.993,0,0,1-4.561-4.029,5.173,5.173,0,0,1-1.091-2.762,2.99,2.99,0,0,1,.937-2.23.972.972,0,0,1,.714-.337c.175,0,.357,0,.512.007s.384-.061.6.458.755,1.846.822,1.981a.471.471,0,0,1,.02.465c-.512,1.024-1.058.984-.782,1.455a7.274,7.274,0,0,0,3.632,3.173c.27.135.424.115.579-.067s.667-.782.842-1.044.357-.222.6-.135,1.556.734,1.826.869.445.2.512.31a2.37,2.37,0,0,1-.162,1.287ZM26.95,2.25H3.234A3.235,3.235,0,0,0,0,5.484V29.2a3.235,3.235,0,0,0,3.234,3.234H26.95A3.235,3.235,0,0,0,30.184,29.2V5.484A3.235,3.235,0,0,0,26.95,2.25ZM15.085,27.934a10.675,10.675,0,0,1-5.107-1.3L4.312,28.122l1.516-5.538a10.7,10.7,0,1,1,20.044-5.329A10.784,10.784,0,0,1,15.085,27.934Z" transform="translate(0 -2.25)" fill="#e3e3e3"/>
</svg>
