<svg xmlns="http://www.w3.org/2000/svg" width="37.019" height="25.872" viewBox="0 0 37.019 25.872">
  <g id="Icon_youtube" data-name="Icon youtube" transform="translate(0 0)">
    <path id="Icon_simple-youtube" data-name="Icon simple-youtube" d="M36.254,9.419A4.64,4.64,0,0,0,33.032,6.2c-2.885-.773-14.5-.773-14.5-.773S6.95,5.409,4.035,6.2A4.64,4.64,0,0,0,.813,9.419a48.216,48.216,0,0,0-.805,8.957A48.215,48.215,0,0,0,.813,27.3a4.64,4.64,0,0,0,3.222,3.222c2.882.775,14.5.775,14.5.775s11.582,0,14.5-.775A4.64,4.64,0,0,0,36.254,27.3a48.216,48.216,0,0,0,.772-8.923,48.215,48.215,0,0,0-.772-8.957Zm-21.427,14.5v-11.1l9.666,5.558Z" transform="translate(-0.007 -5.424)" fill="#e3e3e3"/>
  </g>
</svg>
